<mxfile host="app.diagrams.net" agent="Mozilla/5.0 (Windows NT 10.0; Win64; x64) AppleWebKit/537.36 (KHTML, like Gecko) Chrome/130.0.0.0 Safari/537.36 Edg/130.0.0.0" version="24.8.6">
  <diagram name="Página-1" id="iObBd_aaXb10hlbMqhut">
    <mxGraphModel dx="4174" dy="1435" grid="1" gridSize="10" guides="1" tooltips="1" connect="1" arrows="1" fold="1" page="1" pageScale="1" pageWidth="827" pageHeight="1169" math="0" shadow="0">
      <root>
        <mxCell id="0" />
        <mxCell id="1" parent="0" />
        <mxCell id="BTqa3jgfDJMF8cVpdAcL-8" value="" style="rounded=0;whiteSpace=wrap;html=1;fillColor=#eeeeee;strokeColor=#36393d;" parent="1" vertex="1">
          <mxGeometry x="-980" y="920" width="750" height="340" as="geometry" />
        </mxCell>
        <mxCell id="BTqa3jgfDJMF8cVpdAcL-5" value="" style="rounded=0;whiteSpace=wrap;html=1;fillColor=#eeeeee;strokeColor=#36393d;flipV=1;" parent="1" vertex="1">
          <mxGeometry x="-1080" y="40" width="580" height="590" as="geometry" />
        </mxCell>
        <mxCell id="BTqa3jgfDJMF8cVpdAcL-6" value="" style="rounded=0;whiteSpace=wrap;html=1;fillColor=#eeeeee;strokeColor=#36393d;" parent="1" vertex="1">
          <mxGeometry x="-440" y="480" width="750" height="330" as="geometry" />
        </mxCell>
        <mxCell id="BTqa3jgfDJMF8cVpdAcL-20" style="edgeStyle=orthogonalEdgeStyle;rounded=0;orthogonalLoop=1;jettySize=auto;html=1;exitX=0.5;exitY=0;exitDx=0;exitDy=0;exitPerimeter=0;entryX=0.5;entryY=1;entryDx=0;entryDy=0;" parent="1" source="LW9SrylBuvqNvZwmOlf7-38" target="LW9SrylBuvqNvZwmOlf7-89" edge="1">
          <mxGeometry relative="1" as="geometry" />
        </mxCell>
        <mxCell id="BTqa3jgfDJMF8cVpdAcL-21" style="edgeStyle=orthogonalEdgeStyle;rounded=0;orthogonalLoop=1;jettySize=auto;html=1;exitX=0;exitY=1;exitDx=0;exitDy=0;exitPerimeter=0;entryX=0.5;entryY=0;entryDx=0;entryDy=0;" parent="1" source="LW9SrylBuvqNvZwmOlf7-38" target="LW9SrylBuvqNvZwmOlf7-69" edge="1">
          <mxGeometry relative="1" as="geometry" />
        </mxCell>
        <mxCell id="BTqa3jgfDJMF8cVpdAcL-22" style="edgeStyle=orthogonalEdgeStyle;rounded=0;orthogonalLoop=1;jettySize=auto;html=1;exitX=0;exitY=1;exitDx=0;exitDy=0;exitPerimeter=0;" parent="1" source="LW9SrylBuvqNvZwmOlf7-38" target="LW9SrylBuvqNvZwmOlf7-50" edge="1">
          <mxGeometry relative="1" as="geometry" />
        </mxCell>
        <mxCell id="BTqa3jgfDJMF8cVpdAcL-23" style="edgeStyle=orthogonalEdgeStyle;rounded=0;orthogonalLoop=1;jettySize=auto;html=1;exitX=1;exitY=1;exitDx=0;exitDy=0;exitPerimeter=0;entryX=0.5;entryY=0;entryDx=0;entryDy=0;" parent="1" source="LW9SrylBuvqNvZwmOlf7-38" target="LW9SrylBuvqNvZwmOlf7-45" edge="1">
          <mxGeometry relative="1" as="geometry" />
        </mxCell>
        <mxCell id="BTqa3jgfDJMF8cVpdAcL-24" style="edgeStyle=orthogonalEdgeStyle;rounded=0;orthogonalLoop=1;jettySize=auto;html=1;exitX=1;exitY=1;exitDx=0;exitDy=0;exitPerimeter=0;" parent="1" source="LW9SrylBuvqNvZwmOlf7-38" target="LW9SrylBuvqNvZwmOlf7-70" edge="1">
          <mxGeometry relative="1" as="geometry" />
        </mxCell>
        <mxCell id="BTqa3jgfDJMF8cVpdAcL-33" style="edgeStyle=orthogonalEdgeStyle;rounded=0;orthogonalLoop=1;jettySize=auto;html=1;exitX=1;exitY=1;exitDx=0;exitDy=0;exitPerimeter=0;" parent="1" source="LW9SrylBuvqNvZwmOlf7-38" target="LW9SrylBuvqNvZwmOlf7-49" edge="1">
          <mxGeometry relative="1" as="geometry" />
        </mxCell>
        <mxCell id="LW9SrylBuvqNvZwmOlf7-38" value="Visitante" style="shape=umlActor;verticalLabelPosition=bottom;verticalAlign=top;html=1;outlineConnect=0;fillColor=#e3c800;strokeColor=#B09500;fontColor=#000000;" parent="1" vertex="1">
          <mxGeometry x="-1240" y="540" width="30" height="60" as="geometry" />
        </mxCell>
        <mxCell id="BTqa3jgfDJMF8cVpdAcL-9" style="edgeStyle=orthogonalEdgeStyle;rounded=0;orthogonalLoop=1;jettySize=auto;html=1;exitX=0.5;exitY=0;exitDx=0;exitDy=0;exitPerimeter=0;" parent="1" source="LW9SrylBuvqNvZwmOlf7-39" target="LW9SrylBuvqNvZwmOlf7-88" edge="1">
          <mxGeometry relative="1" as="geometry" />
        </mxCell>
        <mxCell id="BTqa3jgfDJMF8cVpdAcL-17" style="edgeStyle=orthogonalEdgeStyle;rounded=0;orthogonalLoop=1;jettySize=auto;html=1;exitX=0.75;exitY=0.1;exitDx=0;exitDy=0;exitPerimeter=0;entryX=0.5;entryY=1;entryDx=0;entryDy=0;" parent="1" source="LW9SrylBuvqNvZwmOlf7-39" target="LW9SrylBuvqNvZwmOlf7-90" edge="1">
          <mxGeometry relative="1" as="geometry" />
        </mxCell>
        <mxCell id="BTqa3jgfDJMF8cVpdAcL-29" style="edgeStyle=orthogonalEdgeStyle;rounded=0;orthogonalLoop=1;jettySize=auto;html=1;exitX=0;exitY=1;exitDx=0;exitDy=0;exitPerimeter=0;" parent="1" source="LW9SrylBuvqNvZwmOlf7-39" target="LW9SrylBuvqNvZwmOlf7-45" edge="1">
          <mxGeometry relative="1" as="geometry" />
        </mxCell>
        <mxCell id="BTqa3jgfDJMF8cVpdAcL-30" style="edgeStyle=orthogonalEdgeStyle;rounded=0;orthogonalLoop=1;jettySize=auto;html=1;exitX=0;exitY=1;exitDx=0;exitDy=0;exitPerimeter=0;entryX=0.5;entryY=0;entryDx=0;entryDy=0;" parent="1" source="LW9SrylBuvqNvZwmOlf7-39" target="LW9SrylBuvqNvZwmOlf7-70" edge="1">
          <mxGeometry relative="1" as="geometry" />
        </mxCell>
        <mxCell id="BTqa3jgfDJMF8cVpdAcL-32" style="edgeStyle=orthogonalEdgeStyle;rounded=0;orthogonalLoop=1;jettySize=auto;html=1;exitX=0;exitY=1;exitDx=0;exitDy=0;exitPerimeter=0;" parent="1" source="LW9SrylBuvqNvZwmOlf7-39" target="LW9SrylBuvqNvZwmOlf7-69" edge="1">
          <mxGeometry relative="1" as="geometry" />
        </mxCell>
        <mxCell id="BTqa3jgfDJMF8cVpdAcL-34" style="edgeStyle=orthogonalEdgeStyle;rounded=0;orthogonalLoop=1;jettySize=auto;html=1;exitX=1;exitY=1;exitDx=0;exitDy=0;exitPerimeter=0;" parent="1" source="LW9SrylBuvqNvZwmOlf7-39" target="LW9SrylBuvqNvZwmOlf7-49" edge="1">
          <mxGeometry relative="1" as="geometry" />
        </mxCell>
        <mxCell id="LW9SrylBuvqNvZwmOlf7-39" value="Usuario registrado" style="shape=umlActor;verticalLabelPosition=bottom;verticalAlign=top;html=1;outlineConnect=0;fillColor=#e3c800;strokeColor=#B09500;fontColor=#000000;" parent="1" vertex="1">
          <mxGeometry x="-795" y="540" width="30" height="60" as="geometry" />
        </mxCell>
        <mxCell id="BTqa3jgfDJMF8cVpdAcL-38" style="edgeStyle=orthogonalEdgeStyle;rounded=0;orthogonalLoop=1;jettySize=auto;html=1;exitX=1;exitY=0;exitDx=0;exitDy=0;entryX=0;entryY=1;entryDx=0;entryDy=0;dashed=1;endArrow=block;endFill=0;" parent="1" source="LW9SrylBuvqNvZwmOlf7-44" target="LW9SrylBuvqNvZwmOlf7-70" edge="1">
          <mxGeometry relative="1" as="geometry" />
        </mxCell>
        <mxCell id="LW9SrylBuvqNvZwmOlf7-44" value="Añadir a carrito" style="ellipse;whiteSpace=wrap;html=1;" parent="1" vertex="1">
          <mxGeometry x="-1180" y="791" width="140" height="70" as="geometry" />
        </mxCell>
        <mxCell id="LW9SrylBuvqNvZwmOlf7-45" value="Seguir pedido" style="ellipse;whiteSpace=wrap;html=1;fillColor=#fff2cc;strokeColor=#d6b656;" parent="1" vertex="1">
          <mxGeometry x="-1200" y="690" width="140" height="70" as="geometry" />
        </mxCell>
        <mxCell id="LW9SrylBuvqNvZwmOlf7-46" value="consultar en base de datos&amp;nbsp;&lt;span style=&quot;background-color: initial;&quot;&gt;de usuarios&lt;/span&gt;" style="ellipse;whiteSpace=wrap;html=1;fillColor=#fff2cc;strokeColor=#d6b656;" parent="1" vertex="1">
          <mxGeometry x="-1295" y="130" width="140" height="70" as="geometry" />
        </mxCell>
        <mxCell id="LW9SrylBuvqNvZwmOlf7-47" value="Gestionar inventario" style="ellipse;whiteSpace=wrap;html=1;fillColor=#fff2cc;strokeColor=#d6b656;" parent="1" vertex="1">
          <mxGeometry x="-230" y="560" width="140" height="70" as="geometry" />
        </mxCell>
        <mxCell id="LW9SrylBuvqNvZwmOlf7-48" value="Notificar usuario&lt;div&gt;al correo&lt;/div&gt;" style="ellipse;whiteSpace=wrap;html=1;" parent="1" vertex="1">
          <mxGeometry x="-435" y="230" width="140" height="70" as="geometry" />
        </mxCell>
        <mxCell id="LW9SrylBuvqNvZwmOlf7-49" value="Buscar producto" style="ellipse;whiteSpace=wrap;html=1;fillColor=#fff2cc;strokeColor=#d6b656;" parent="1" vertex="1">
          <mxGeometry x="-730" y="690" width="140" height="70" as="geometry" />
        </mxCell>
        <mxCell id="LW9SrylBuvqNvZwmOlf7-50" value="Ver colección destacada&amp;nbsp;" style="ellipse;whiteSpace=wrap;html=1;" parent="1" vertex="1">
          <mxGeometry x="-1380" y="690" width="140" height="70" as="geometry" />
        </mxCell>
        <mxCell id="BTqa3jgfDJMF8cVpdAcL-15" style="edgeStyle=orthogonalEdgeStyle;rounded=0;orthogonalLoop=1;jettySize=auto;html=1;exitX=1;exitY=1;exitDx=0;exitDy=0;entryX=0;entryY=0;entryDx=0;entryDy=0;endArrow=block;endFill=0;dashed=1;" parent="1" source="LW9SrylBuvqNvZwmOlf7-51" target="LW9SrylBuvqNvZwmOlf7-88" edge="1">
          <mxGeometry relative="1" as="geometry" />
        </mxCell>
        <mxCell id="LW9SrylBuvqNvZwmOlf7-51" value="Suscribirse" style="ellipse;whiteSpace=wrap;html=1;" parent="1" vertex="1">
          <mxGeometry x="-1020" y="340" width="140" height="70" as="geometry" />
        </mxCell>
        <mxCell id="BTqa3jgfDJMF8cVpdAcL-40" style="edgeStyle=orthogonalEdgeStyle;rounded=0;orthogonalLoop=1;jettySize=auto;html=1;exitX=0.5;exitY=0;exitDx=0;exitDy=0;entryX=0.5;entryY=1;entryDx=0;entryDy=0;dashed=1;endArrow=block;endFill=0;" parent="1" source="LW9SrylBuvqNvZwmOlf7-53" target="LW9SrylBuvqNvZwmOlf7-86" edge="1">
          <mxGeometry relative="1" as="geometry" />
        </mxCell>
        <mxCell id="BTqa3jgfDJMF8cVpdAcL-45" style="edgeStyle=orthogonalEdgeStyle;rounded=0;orthogonalLoop=1;jettySize=auto;html=1;entryX=1;entryY=0.5;entryDx=0;entryDy=0;endArrow=block;endFill=0;dashed=1;" parent="1" source="LW9SrylBuvqNvZwmOlf7-55" target="LW9SrylBuvqNvZwmOlf7-53" edge="1">
          <mxGeometry relative="1" as="geometry" />
        </mxCell>
        <mxCell id="LW9SrylBuvqNvZwmOlf7-53" value="Proceso de pago" style="ellipse;whiteSpace=wrap;html=1;" parent="1" vertex="1">
          <mxGeometry x="-790" y="940" width="140" height="70" as="geometry" />
        </mxCell>
        <mxCell id="BTqa3jgfDJMF8cVpdAcL-41" style="edgeStyle=orthogonalEdgeStyle;rounded=0;orthogonalLoop=1;jettySize=auto;html=1;exitX=0.5;exitY=0;exitDx=0;exitDy=0;entryX=0.5;entryY=1;entryDx=0;entryDy=0;dashed=1;endArrow=block;endFill=0;" parent="1" source="LW9SrylBuvqNvZwmOlf7-54" target="LW9SrylBuvqNvZwmOlf7-53" edge="1">
          <mxGeometry relative="1" as="geometry" />
        </mxCell>
        <mxCell id="LW9SrylBuvqNvZwmOlf7-54" value="Asignar&amp;nbsp;&lt;div&gt;métodos de pago&lt;/div&gt;" style="ellipse;whiteSpace=wrap;html=1;" parent="1" vertex="1">
          <mxGeometry x="-790" y="1050" width="140" height="71" as="geometry" />
        </mxCell>
        <mxCell id="BTqa3jgfDJMF8cVpdAcL-46" style="edgeStyle=orthogonalEdgeStyle;rounded=0;orthogonalLoop=1;jettySize=auto;html=1;exitX=0;exitY=0.5;exitDx=0;exitDy=0;entryX=1;entryY=0.5;entryDx=0;entryDy=0;endArrow=block;endFill=0;dashed=1;" parent="1" source="LW9SrylBuvqNvZwmOlf7-57" target="LW9SrylBuvqNvZwmOlf7-55" edge="1">
          <mxGeometry relative="1" as="geometry" />
        </mxCell>
        <mxCell id="BTqa3jgfDJMF8cVpdAcL-60" style="edgeStyle=orthogonalEdgeStyle;rounded=0;orthogonalLoop=1;jettySize=auto;html=1;exitX=0.5;exitY=0;exitDx=0;exitDy=0;entryX=0.5;entryY=0;entryDx=0;entryDy=0;fillColor=#ffcc99;strokeColor=#D6B656;dashed=1;endArrow=block;endFill=0;" parent="1" source="LW9SrylBuvqNvZwmOlf7-55" target="BTqa3jgfDJMF8cVpdAcL-59" edge="1">
          <mxGeometry relative="1" as="geometry" />
        </mxCell>
        <mxCell id="LW9SrylBuvqNvZwmOlf7-55" value="Asignar producto&lt;div&gt;a enviar (pedido)&lt;/div&gt;" style="ellipse;whiteSpace=wrap;html=1;" parent="1" vertex="1">
          <mxGeometry x="-579" y="940" width="140" height="70" as="geometry" />
        </mxCell>
        <mxCell id="BTqa3jgfDJMF8cVpdAcL-52" style="edgeStyle=orthogonalEdgeStyle;rounded=0;orthogonalLoop=1;jettySize=auto;html=1;exitX=0;exitY=0.5;exitDx=0;exitDy=0;entryX=1;entryY=0;entryDx=0;entryDy=0;dashed=1;endArrow=block;endFill=0;" parent="1" source="LW9SrylBuvqNvZwmOlf7-56" target="BTqa3jgfDJMF8cVpdAcL-3" edge="1">
          <mxGeometry relative="1" as="geometry" />
        </mxCell>
        <mxCell id="BTqa3jgfDJMF8cVpdAcL-64" style="edgeStyle=orthogonalEdgeStyle;rounded=0;orthogonalLoop=1;jettySize=auto;html=1;exitX=1;exitY=0.5;exitDx=0;exitDy=0;entryX=1;entryY=0.5;entryDx=0;entryDy=0;strokeColor=#D6B656;dashed=1;endArrow=block;endFill=0;" parent="1" source="LW9SrylBuvqNvZwmOlf7-56" target="BTqa3jgfDJMF8cVpdAcL-59" edge="1">
          <mxGeometry relative="1" as="geometry">
            <Array as="points">
              <mxPoint x="310" y="536" />
              <mxPoint x="310" y="955" />
            </Array>
          </mxGeometry>
        </mxCell>
        <mxCell id="LW9SrylBuvqNvZwmOlf7-56" value="Actualizar productos" style="ellipse;whiteSpace=wrap;html=1;" parent="1" vertex="1">
          <mxGeometry x="103.5" y="500" width="140" height="71" as="geometry" />
        </mxCell>
        <mxCell id="LW9SrylBuvqNvZwmOlf7-57" value="Generar código&lt;br&gt;de rastreo" style="ellipse;whiteSpace=wrap;html=1;" parent="1" vertex="1">
          <mxGeometry x="-375" y="940" width="140" height="71" as="geometry" />
        </mxCell>
        <mxCell id="BTqa3jgfDJMF8cVpdAcL-54" style="edgeStyle=orthogonalEdgeStyle;rounded=0;orthogonalLoop=1;jettySize=auto;html=1;exitX=0;exitY=0;exitDx=0;exitDy=0;entryX=1;entryY=1;entryDx=0;entryDy=0;dashed=1;endArrow=block;endFill=0;" parent="1" source="LW9SrylBuvqNvZwmOlf7-58" target="BTqa3jgfDJMF8cVpdAcL-3" edge="1">
          <mxGeometry relative="1" as="geometry" />
        </mxCell>
        <mxCell id="BTqa3jgfDJMF8cVpdAcL-67" style="edgeStyle=orthogonalEdgeStyle;rounded=0;orthogonalLoop=1;jettySize=auto;html=1;exitX=1;exitY=0.5;exitDx=0;exitDy=0;entryX=1;entryY=0.5;entryDx=0;entryDy=0;strokeColor=#D6B656;dashed=1;endArrow=block;endFill=0;" parent="1" source="LW9SrylBuvqNvZwmOlf7-58" target="BTqa3jgfDJMF8cVpdAcL-59" edge="1">
          <mxGeometry relative="1" as="geometry" />
        </mxCell>
        <mxCell id="LW9SrylBuvqNvZwmOlf7-58" value="Añadir productos" style="ellipse;whiteSpace=wrap;html=1;" parent="1" vertex="1">
          <mxGeometry x="110" y="720" width="140" height="71" as="geometry" />
        </mxCell>
        <mxCell id="BTqa3jgfDJMF8cVpdAcL-44" style="edgeStyle=orthogonalEdgeStyle;rounded=0;orthogonalLoop=1;jettySize=auto;html=1;exitX=0;exitY=0;exitDx=0;exitDy=0;entryX=1;entryY=1;entryDx=0;entryDy=0;dashed=1;endArrow=block;endFill=0;" parent="1" source="LW9SrylBuvqNvZwmOlf7-59" target="LW9SrylBuvqNvZwmOlf7-54" edge="1">
          <mxGeometry relative="1" as="geometry" />
        </mxCell>
        <mxCell id="LW9SrylBuvqNvZwmOlf7-59" value="Procesar tarjeta de credito" style="ellipse;whiteSpace=wrap;html=1;" parent="1" vertex="1">
          <mxGeometry x="-595" y="1109" width="140" height="71" as="geometry" />
        </mxCell>
        <mxCell id="BTqa3jgfDJMF8cVpdAcL-43" style="edgeStyle=orthogonalEdgeStyle;rounded=0;orthogonalLoop=1;jettySize=auto;html=1;exitX=0.5;exitY=0;exitDx=0;exitDy=0;dashed=1;endArrow=block;endFill=0;" parent="1" source="LW9SrylBuvqNvZwmOlf7-60" target="LW9SrylBuvqNvZwmOlf7-54" edge="1">
          <mxGeometry relative="1" as="geometry" />
        </mxCell>
        <mxCell id="LW9SrylBuvqNvZwmOlf7-60" value="procesar tarjeta de debito" style="ellipse;whiteSpace=wrap;html=1;" parent="1" vertex="1">
          <mxGeometry x="-790" y="1170" width="140" height="71" as="geometry" />
        </mxCell>
        <mxCell id="BTqa3jgfDJMF8cVpdAcL-42" style="edgeStyle=orthogonalEdgeStyle;rounded=0;orthogonalLoop=1;jettySize=auto;html=1;exitX=1;exitY=0;exitDx=0;exitDy=0;entryX=0;entryY=1;entryDx=0;entryDy=0;dashed=1;endArrow=block;endFill=0;" parent="1" source="LW9SrylBuvqNvZwmOlf7-61" target="LW9SrylBuvqNvZwmOlf7-54" edge="1">
          <mxGeometry relative="1" as="geometry" />
        </mxCell>
        <mxCell id="LW9SrylBuvqNvZwmOlf7-61" value="procesar por caja" style="ellipse;whiteSpace=wrap;html=1;" parent="1" vertex="1">
          <mxGeometry x="-975" y="1109" width="140" height="71" as="geometry" />
        </mxCell>
        <mxCell id="BTqa3jgfDJMF8cVpdAcL-53" style="edgeStyle=orthogonalEdgeStyle;rounded=0;orthogonalLoop=1;jettySize=auto;html=1;exitX=0;exitY=0.5;exitDx=0;exitDy=0;entryX=1;entryY=0.5;entryDx=0;entryDy=0;dashed=1;endArrow=block;endFill=0;" parent="1" source="LW9SrylBuvqNvZwmOlf7-64" target="BTqa3jgfDJMF8cVpdAcL-3" edge="1">
          <mxGeometry relative="1" as="geometry" />
        </mxCell>
        <mxCell id="BTqa3jgfDJMF8cVpdAcL-68" style="edgeStyle=orthogonalEdgeStyle;rounded=0;orthogonalLoop=1;jettySize=auto;html=1;exitX=1;exitY=0.5;exitDx=0;exitDy=0;entryX=1;entryY=0.5;entryDx=0;entryDy=0;strokeColor=#D6B656;dashed=1;endArrow=block;endFill=0;" parent="1" source="LW9SrylBuvqNvZwmOlf7-64" target="BTqa3jgfDJMF8cVpdAcL-59" edge="1">
          <mxGeometry relative="1" as="geometry" />
        </mxCell>
        <mxCell id="LW9SrylBuvqNvZwmOlf7-64" value="Eliminar productos" style="ellipse;whiteSpace=wrap;html=1;" parent="1" vertex="1">
          <mxGeometry x="150" y="610" width="140" height="71" as="geometry" />
        </mxCell>
        <mxCell id="BTqa3jgfDJMF8cVpdAcL-70" style="edgeStyle=orthogonalEdgeStyle;rounded=0;orthogonalLoop=1;jettySize=auto;html=1;exitX=0.5;exitY=1;exitDx=0;exitDy=0;strokeColor=#D6B656;dashed=1;endArrow=block;endFill=0;" parent="1" source="LW9SrylBuvqNvZwmOlf7-67" target="BTqa3jgfDJMF8cVpdAcL-59" edge="1">
          <mxGeometry relative="1" as="geometry" />
        </mxCell>
        <mxCell id="LW9SrylBuvqNvZwmOlf7-67" value="Ver productos" style="ellipse;whiteSpace=wrap;html=1;" parent="1" vertex="1">
          <mxGeometry x="-230" y="681" width="140" height="71" as="geometry" />
        </mxCell>
        <mxCell id="BTqa3jgfDJMF8cVpdAcL-69" style="edgeStyle=orthogonalEdgeStyle;rounded=0;orthogonalLoop=1;jettySize=auto;html=1;exitX=0.5;exitY=1;exitDx=0;exitDy=0;entryX=0.5;entryY=0;entryDx=0;entryDy=0;strokeColor=#D6B656;dashed=1;endArrow=block;endFill=0;" parent="1" source="LW9SrylBuvqNvZwmOlf7-68" target="BTqa3jgfDJMF8cVpdAcL-59" edge="1">
          <mxGeometry relative="1" as="geometry" />
        </mxCell>
        <mxCell id="LW9SrylBuvqNvZwmOlf7-68" value="Ver pedidos" style="ellipse;whiteSpace=wrap;html=1;" parent="1" vertex="1">
          <mxGeometry x="-435" y="681" width="140" height="71" as="geometry" />
        </mxCell>
        <mxCell id="LW9SrylBuvqNvZwmOlf7-69" value="Ver catálogos&amp;nbsp;" style="ellipse;whiteSpace=wrap;html=1;" parent="1" vertex="1">
          <mxGeometry x="-1570" y="690" width="140" height="70" as="geometry" />
        </mxCell>
        <mxCell id="LW9SrylBuvqNvZwmOlf7-70" value="Ver carrito" style="ellipse;whiteSpace=wrap;html=1;fillColor=#fff2cc;strokeColor=#d6b656;" parent="1" vertex="1">
          <mxGeometry x="-1020" y="690" width="140" height="70" as="geometry" />
        </mxCell>
        <mxCell id="BTqa3jgfDJMF8cVpdAcL-11" style="edgeStyle=orthogonalEdgeStyle;rounded=0;orthogonalLoop=1;jettySize=auto;html=1;entryX=0.5;entryY=0;entryDx=0;entryDy=0;dashed=1;endArrow=block;endFill=0;" parent="1" source="LW9SrylBuvqNvZwmOlf7-72" target="LW9SrylBuvqNvZwmOlf7-71" edge="1">
          <mxGeometry relative="1" as="geometry" />
        </mxCell>
        <mxCell id="BTqa3jgfDJMF8cVpdAcL-12" style="edgeStyle=orthogonalEdgeStyle;rounded=0;orthogonalLoop=1;jettySize=auto;html=1;exitX=0;exitY=1;exitDx=0;exitDy=0;entryX=1;entryY=0;entryDx=0;entryDy=0;dashed=1;endArrow=block;endFill=0;" parent="1" source="LW9SrylBuvqNvZwmOlf7-74" target="LW9SrylBuvqNvZwmOlf7-71" edge="1">
          <mxGeometry relative="1" as="geometry" />
        </mxCell>
        <mxCell id="BTqa3jgfDJMF8cVpdAcL-13" style="edgeStyle=orthogonalEdgeStyle;rounded=0;orthogonalLoop=1;jettySize=auto;html=1;exitX=1;exitY=1;exitDx=0;exitDy=0;entryX=0;entryY=0;entryDx=0;entryDy=0;dashed=1;endArrow=block;endFill=0;" parent="1" source="LW9SrylBuvqNvZwmOlf7-73" target="LW9SrylBuvqNvZwmOlf7-71" edge="1">
          <mxGeometry relative="1" as="geometry" />
        </mxCell>
        <mxCell id="LW9SrylBuvqNvZwmOlf7-71" value="gestionar cuenta de usuario" style="ellipse;whiteSpace=wrap;html=1;" parent="1" vertex="1">
          <mxGeometry x="-855" y="240" width="140" height="70" as="geometry" />
        </mxCell>
        <mxCell id="BTqa3jgfDJMF8cVpdAcL-73" style="edgeStyle=orthogonalEdgeStyle;rounded=0;orthogonalLoop=1;jettySize=auto;html=1;exitX=0;exitY=0.5;exitDx=0;exitDy=0;entryX=0.5;entryY=0;entryDx=0;entryDy=0;strokeColor=#D6B656;endArrow=block;endFill=0;dashed=1;" parent="1" source="LW9SrylBuvqNvZwmOlf7-72" target="LW9SrylBuvqNvZwmOlf7-46" edge="1">
          <mxGeometry relative="1" as="geometry" />
        </mxCell>
        <mxCell id="LW9SrylBuvqNvZwmOlf7-72" value="Actualizar datos" style="ellipse;whiteSpace=wrap;html=1;" parent="1" vertex="1">
          <mxGeometry x="-855" y="80" width="140" height="70" as="geometry" />
        </mxCell>
        <mxCell id="BTqa3jgfDJMF8cVpdAcL-72" style="edgeStyle=orthogonalEdgeStyle;rounded=0;orthogonalLoop=1;jettySize=auto;html=1;exitX=0;exitY=0.5;exitDx=0;exitDy=0;entryX=1;entryY=0.5;entryDx=0;entryDy=0;strokeColor=#D6B656;endArrow=block;endFill=0;dashed=1;" parent="1" source="LW9SrylBuvqNvZwmOlf7-73" target="LW9SrylBuvqNvZwmOlf7-46" edge="1">
          <mxGeometry relative="1" as="geometry" />
        </mxCell>
        <mxCell id="LW9SrylBuvqNvZwmOlf7-73" value="ver compras pasadas" style="ellipse;whiteSpace=wrap;html=1;" parent="1" vertex="1">
          <mxGeometry x="-1005" y="130" width="140" height="70" as="geometry" />
        </mxCell>
        <mxCell id="BTqa3jgfDJMF8cVpdAcL-74" style="edgeStyle=orthogonalEdgeStyle;rounded=0;orthogonalLoop=1;jettySize=auto;html=1;exitX=0.5;exitY=0;exitDx=0;exitDy=0;entryX=0.5;entryY=0;entryDx=0;entryDy=0;strokeColor=#D6B656;endArrow=block;endFill=0;dashed=1;" parent="1" source="LW9SrylBuvqNvZwmOlf7-74" target="LW9SrylBuvqNvZwmOlf7-46" edge="1">
          <mxGeometry relative="1" as="geometry">
            <Array as="points">
              <mxPoint x="-625" y="60" />
              <mxPoint x="-1225" y="60" />
            </Array>
          </mxGeometry>
        </mxCell>
        <mxCell id="LW9SrylBuvqNvZwmOlf7-74" value="Eliminar cuenta" style="ellipse;whiteSpace=wrap;html=1;" parent="1" vertex="1">
          <mxGeometry x="-695" y="130" width="140" height="70" as="geometry" />
        </mxCell>
        <mxCell id="BTqa3jgfDJMF8cVpdAcL-18" style="edgeStyle=orthogonalEdgeStyle;rounded=0;orthogonalLoop=1;jettySize=auto;html=1;exitX=0;exitY=0.5;exitDx=0;exitDy=0;entryX=1;entryY=0;entryDx=0;entryDy=0;endArrow=block;endFill=0;dashed=1;" parent="1" source="LW9SrylBuvqNvZwmOlf7-75" target="LW9SrylBuvqNvZwmOlf7-88" edge="1">
          <mxGeometry relative="1" as="geometry">
            <Array as="points">
              <mxPoint x="-710" y="275" />
              <mxPoint x="-710" y="410" />
            </Array>
          </mxGeometry>
        </mxCell>
        <mxCell id="LW9SrylBuvqNvZwmOlf7-75" value="Hacer comentario&amp;nbsp;&lt;br&gt;a la página&amp;nbsp;" style="ellipse;whiteSpace=wrap;html=1;" parent="1" vertex="1">
          <mxGeometry x="-650" y="240" width="140" height="70" as="geometry" />
        </mxCell>
        <mxCell id="BTqa3jgfDJMF8cVpdAcL-16" style="edgeStyle=orthogonalEdgeStyle;rounded=0;orthogonalLoop=1;jettySize=auto;html=1;exitX=0.5;exitY=1;exitDx=0;exitDy=0;dashed=1;endArrow=block;endFill=0;" parent="1" source="LW9SrylBuvqNvZwmOlf7-76" target="LW9SrylBuvqNvZwmOlf7-51" edge="1">
          <mxGeometry relative="1" as="geometry" />
        </mxCell>
        <mxCell id="LW9SrylBuvqNvZwmOlf7-76" value="Asignar VIP" style="ellipse;whiteSpace=wrap;html=1;" parent="1" vertex="1">
          <mxGeometry x="-1070" y="230" width="140" height="70" as="geometry" />
        </mxCell>
        <mxCell id="BTqa3jgfDJMF8cVpdAcL-48" style="edgeStyle=orthogonalEdgeStyle;rounded=0;orthogonalLoop=1;jettySize=auto;html=1;exitX=0;exitY=1;exitDx=0;exitDy=0;exitPerimeter=0;" parent="1" source="LW9SrylBuvqNvZwmOlf7-79" target="LW9SrylBuvqNvZwmOlf7-68" edge="1">
          <mxGeometry relative="1" as="geometry" />
        </mxCell>
        <mxCell id="BTqa3jgfDJMF8cVpdAcL-49" style="edgeStyle=orthogonalEdgeStyle;rounded=0;orthogonalLoop=1;jettySize=auto;html=1;exitX=1;exitY=1;exitDx=0;exitDy=0;exitPerimeter=0;" parent="1" source="LW9SrylBuvqNvZwmOlf7-79" target="LW9SrylBuvqNvZwmOlf7-67" edge="1">
          <mxGeometry relative="1" as="geometry" />
        </mxCell>
        <mxCell id="BTqa3jgfDJMF8cVpdAcL-50" style="edgeStyle=orthogonalEdgeStyle;rounded=0;orthogonalLoop=1;jettySize=auto;html=1;exitX=0.5;exitY=0.5;exitDx=0;exitDy=0;exitPerimeter=0;entryX=0;entryY=0.5;entryDx=0;entryDy=0;" parent="1" source="LW9SrylBuvqNvZwmOlf7-79" target="LW9SrylBuvqNvZwmOlf7-47" edge="1">
          <mxGeometry relative="1" as="geometry" />
        </mxCell>
        <mxCell id="LW9SrylBuvqNvZwmOlf7-79" value="Admin" style="shape=umlActor;verticalLabelPosition=bottom;verticalAlign=top;html=1;outlineConnect=0;fillColor=#e3c800;strokeColor=#B09500;fontColor=#000000;" parent="1" vertex="1">
          <mxGeometry x="-365" y="540" width="30" height="60" as="geometry" />
        </mxCell>
        <mxCell id="BTqa3jgfDJMF8cVpdAcL-37" style="edgeStyle=orthogonalEdgeStyle;rounded=0;orthogonalLoop=1;jettySize=auto;html=1;exitX=0.5;exitY=0;exitDx=0;exitDy=0;entryX=0.5;entryY=1;entryDx=0;entryDy=0;dashed=1;endArrow=block;endFill=0;" parent="1" source="LW9SrylBuvqNvZwmOlf7-85" target="LW9SrylBuvqNvZwmOlf7-70" edge="1">
          <mxGeometry relative="1" as="geometry" />
        </mxCell>
        <mxCell id="LW9SrylBuvqNvZwmOlf7-85" value="Eliminar del carrito" style="ellipse;whiteSpace=wrap;html=1;" parent="1" vertex="1">
          <mxGeometry x="-1020" y="840" width="140" height="70" as="geometry" />
        </mxCell>
        <mxCell id="BTqa3jgfDJMF8cVpdAcL-39" style="edgeStyle=orthogonalEdgeStyle;rounded=0;orthogonalLoop=1;jettySize=auto;html=1;exitX=0;exitY=0;exitDx=0;exitDy=0;entryX=1;entryY=1;entryDx=0;entryDy=0;dashed=1;endArrow=block;endFill=0;" parent="1" source="LW9SrylBuvqNvZwmOlf7-86" target="LW9SrylBuvqNvZwmOlf7-70" edge="1">
          <mxGeometry relative="1" as="geometry" />
        </mxCell>
        <mxCell id="LW9SrylBuvqNvZwmOlf7-86" value="continuar a comprar" style="ellipse;whiteSpace=wrap;html=1;" parent="1" vertex="1">
          <mxGeometry x="-860" y="791" width="140" height="70" as="geometry" />
        </mxCell>
        <mxCell id="BTqa3jgfDJMF8cVpdAcL-35" style="edgeStyle=orthogonalEdgeStyle;rounded=0;orthogonalLoop=1;jettySize=auto;html=1;exitX=0;exitY=0;exitDx=0;exitDy=0;entryX=1;entryY=1;entryDx=0;entryDy=0;endArrow=block;endFill=0;dashed=1;" parent="1" source="LW9SrylBuvqNvZwmOlf7-87" target="LW9SrylBuvqNvZwmOlf7-49" edge="1">
          <mxGeometry relative="1" as="geometry" />
        </mxCell>
        <mxCell id="LW9SrylBuvqNvZwmOlf7-87" value="filtrar productos" style="ellipse;whiteSpace=wrap;html=1;" parent="1" vertex="1">
          <mxGeometry x="-620" y="791" width="140" height="70" as="geometry" />
        </mxCell>
        <mxCell id="BTqa3jgfDJMF8cVpdAcL-10" style="edgeStyle=orthogonalEdgeStyle;rounded=0;orthogonalLoop=1;jettySize=auto;html=1;entryX=0.5;entryY=0;entryDx=0;entryDy=0;endArrow=block;endFill=0;dashed=1;" parent="1" source="LW9SrylBuvqNvZwmOlf7-71" target="LW9SrylBuvqNvZwmOlf7-88" edge="1">
          <mxGeometry relative="1" as="geometry" />
        </mxCell>
        <mxCell id="LW9SrylBuvqNvZwmOlf7-88" value="Iniciar sesión" style="ellipse;whiteSpace=wrap;html=1;" parent="1" vertex="1">
          <mxGeometry x="-850" y="400" width="140" height="70" as="geometry" />
        </mxCell>
        <mxCell id="BTqa3jgfDJMF8cVpdAcL-71" style="edgeStyle=orthogonalEdgeStyle;rounded=0;orthogonalLoop=1;jettySize=auto;html=1;exitX=0.5;exitY=0;exitDx=0;exitDy=0;entryX=0.5;entryY=1;entryDx=0;entryDy=0;strokeColor=#D6B656;endArrow=block;endFill=0;dashed=1;" parent="1" source="LW9SrylBuvqNvZwmOlf7-89" target="LW9SrylBuvqNvZwmOlf7-46" edge="1">
          <mxGeometry relative="1" as="geometry" />
        </mxCell>
        <mxCell id="LW9SrylBuvqNvZwmOlf7-89" value="Registrarse" style="ellipse;whiteSpace=wrap;html=1;" parent="1" vertex="1">
          <mxGeometry x="-1295" y="400" width="140" height="70" as="geometry" />
        </mxCell>
        <mxCell id="BTqa3jgfDJMF8cVpdAcL-19" style="edgeStyle=orthogonalEdgeStyle;rounded=0;orthogonalLoop=1;jettySize=auto;html=1;exitX=0;exitY=1;exitDx=0;exitDy=0;entryX=1;entryY=0.5;entryDx=0;entryDy=0;dashed=1;endArrow=block;endFill=0;" parent="1" source="LW9SrylBuvqNvZwmOlf7-48" target="LW9SrylBuvqNvZwmOlf7-90" edge="1">
          <mxGeometry relative="1" as="geometry">
            <Array as="points">
              <mxPoint x="-470" y="290" />
              <mxPoint x="-470" y="375" />
            </Array>
          </mxGeometry>
        </mxCell>
        <mxCell id="LW9SrylBuvqNvZwmOlf7-90" value="Recordar contraseña" style="ellipse;whiteSpace=wrap;html=1;" parent="1" vertex="1">
          <mxGeometry x="-695" y="340" width="140" height="70" as="geometry" />
        </mxCell>
        <mxCell id="BTqa3jgfDJMF8cVpdAcL-51" style="edgeStyle=orthogonalEdgeStyle;rounded=0;orthogonalLoop=1;jettySize=auto;html=1;exitX=0;exitY=0.5;exitDx=0;exitDy=0;dashed=1;endArrow=block;endFill=0;" parent="1" source="BTqa3jgfDJMF8cVpdAcL-3" target="LW9SrylBuvqNvZwmOlf7-47" edge="1">
          <mxGeometry relative="1" as="geometry" />
        </mxCell>
        <mxCell id="BTqa3jgfDJMF8cVpdAcL-3" value="Administrar productos" style="ellipse;whiteSpace=wrap;html=1;" parent="1" vertex="1">
          <mxGeometry x="-36.5" y="610" width="140" height="71" as="geometry" />
        </mxCell>
        <mxCell id="BTqa3jgfDJMF8cVpdAcL-31" style="edgeStyle=orthogonalEdgeStyle;rounded=0;orthogonalLoop=1;jettySize=auto;html=1;exitX=0;exitY=1;exitDx=0;exitDy=0;exitPerimeter=0;" parent="1" source="LW9SrylBuvqNvZwmOlf7-39" edge="1">
          <mxGeometry relative="1" as="geometry">
            <mxPoint x="-1310" y="690" as="targetPoint" />
          </mxGeometry>
        </mxCell>
        <mxCell id="BTqa3jgfDJMF8cVpdAcL-57" style="edgeStyle=orthogonalEdgeStyle;rounded=0;orthogonalLoop=1;jettySize=auto;html=1;exitX=0.5;exitY=0;exitDx=0;exitDy=0;entryX=0.5;entryY=1;entryDx=0;entryDy=0;dashed=1;endArrow=block;endFill=0;" parent="1" source="BTqa3jgfDJMF8cVpdAcL-56" target="LW9SrylBuvqNvZwmOlf7-57" edge="1">
          <mxGeometry relative="1" as="geometry" />
        </mxCell>
        <mxCell id="BTqa3jgfDJMF8cVpdAcL-56" value="Enviar código&lt;br&gt;de rastreo al correo" style="ellipse;whiteSpace=wrap;html=1;" parent="1" vertex="1">
          <mxGeometry x="-375" y="1054.5" width="140" height="71" as="geometry" />
        </mxCell>
        <mxCell id="BTqa3jgfDJMF8cVpdAcL-59" value="&amp;nbsp;consultar en base de datos&amp;nbsp;&lt;span style=&quot;background-color: initial;&quot;&gt;de productos y pedidos&lt;/span&gt;" style="ellipse;whiteSpace=wrap;html=1;fillColor=#fff2cc;strokeColor=#d6b656;" parent="1" vertex="1">
          <mxGeometry x="-90" y="920" width="140" height="70" as="geometry" />
        </mxCell>
        <mxCell id="BTqa3jgfDJMF8cVpdAcL-76" value="&amp;lt;&amp;lt;include&amp;gt;&amp;gt;" style="text;html=1;align=center;verticalAlign=middle;whiteSpace=wrap;rounded=0;" parent="1" vertex="1">
          <mxGeometry x="-810" y="360" width="60" height="30" as="geometry" />
        </mxCell>
        <mxCell id="BTqa3jgfDJMF8cVpdAcL-80" value="&amp;lt;&amp;lt;use&amp;gt;&amp;gt;" style="text;html=1;align=center;verticalAlign=middle;whiteSpace=wrap;rounded=0;" parent="1" vertex="1">
          <mxGeometry x="-1255" y="290" width="60" height="30" as="geometry" />
        </mxCell>
        <mxCell id="BTqa3jgfDJMF8cVpdAcL-85" value="&amp;lt;&amp;lt;use&amp;gt;&amp;gt;" style="text;html=1;align=center;verticalAlign=middle;whiteSpace=wrap;rounded=0;" parent="1" vertex="1">
          <mxGeometry x="-1067" y="150" width="60" height="30" as="geometry" />
        </mxCell>
        <mxCell id="BTqa3jgfDJMF8cVpdAcL-87" value="&amp;lt;&amp;lt;use&amp;gt;&amp;gt;" style="text;html=1;align=center;verticalAlign=middle;whiteSpace=wrap;rounded=0;" parent="1" vertex="1">
          <mxGeometry x="-1066" y="95" width="60" height="30" as="geometry" />
        </mxCell>
        <mxCell id="BTqa3jgfDJMF8cVpdAcL-88" value="&amp;lt;&amp;lt;use&amp;gt;&amp;gt;" style="text;html=1;align=center;verticalAlign=middle;whiteSpace=wrap;rounded=0;" parent="1" vertex="1">
          <mxGeometry x="-1068" y="45" width="60" height="30" as="geometry" />
        </mxCell>
        <mxCell id="BTqa3jgfDJMF8cVpdAcL-90" value="&amp;lt;&amp;lt;extend&amp;gt;&amp;gt;" style="text;html=1;align=center;verticalAlign=middle;whiteSpace=wrap;rounded=0;" parent="1" vertex="1">
          <mxGeometry x="-865" y="190" width="60" height="30" as="geometry" />
        </mxCell>
        <mxCell id="BTqa3jgfDJMF8cVpdAcL-91" value="&amp;lt;&amp;lt;extend&amp;gt;&amp;gt;" style="text;html=1;align=center;verticalAlign=middle;whiteSpace=wrap;rounded=0;" parent="1" vertex="1">
          <mxGeometry x="-810" y="170" width="60" height="30" as="geometry" />
        </mxCell>
        <mxCell id="BTqa3jgfDJMF8cVpdAcL-93" value="&amp;lt;&amp;lt;extend&amp;gt;&amp;gt;" style="text;html=1;align=center;verticalAlign=middle;whiteSpace=wrap;rounded=0;" parent="1" vertex="1">
          <mxGeometry x="-750" y="190" width="60" height="30" as="geometry" />
        </mxCell>
        <mxCell id="BTqa3jgfDJMF8cVpdAcL-94" value="&amp;lt;&amp;lt;include&amp;gt;&amp;gt;" style="text;html=1;align=center;verticalAlign=middle;whiteSpace=wrap;rounded=0;" parent="1" vertex="1">
          <mxGeometry x="-887" y="390" width="60" height="30" as="geometry" />
        </mxCell>
        <mxCell id="BTqa3jgfDJMF8cVpdAcL-96" value="&amp;lt;&amp;lt;include&amp;gt;&amp;gt;" style="text;html=1;align=center;verticalAlign=middle;whiteSpace=wrap;rounded=0;" parent="1" vertex="1">
          <mxGeometry x="-740" y="330" width="60" height="30" as="geometry" />
        </mxCell>
        <mxCell id="BTqa3jgfDJMF8cVpdAcL-98" value="&amp;lt;&amp;lt;include&amp;gt;&amp;gt;" style="text;html=1;align=center;verticalAlign=middle;whiteSpace=wrap;rounded=0;" parent="1" vertex="1">
          <mxGeometry x="-1030" y="300" width="60" height="30" as="geometry" />
        </mxCell>
        <mxCell id="BTqa3jgfDJMF8cVpdAcL-99" value="&amp;lt;&amp;lt;include&amp;gt;&amp;gt;" style="text;html=1;align=center;verticalAlign=middle;whiteSpace=wrap;rounded=0;" parent="1" vertex="1">
          <mxGeometry x="-499" y="320" width="60" height="30" as="geometry" />
        </mxCell>
        <mxCell id="BTqa3jgfDJMF8cVpdAcL-102" value="&amp;lt;&amp;lt;include&amp;gt;&amp;gt;" style="text;html=1;align=center;verticalAlign=middle;whiteSpace=wrap;rounded=0;" parent="1" vertex="1">
          <mxGeometry x="-90" y="610" width="60" height="30" as="geometry" />
        </mxCell>
        <mxCell id="BTqa3jgfDJMF8cVpdAcL-104" value="&amp;lt;&amp;lt;extend&amp;gt;&amp;gt;" style="text;html=1;align=center;verticalAlign=middle;whiteSpace=wrap;rounded=0;" parent="1" vertex="1">
          <mxGeometry x="-1030" y="780" width="60" height="30" as="geometry" />
        </mxCell>
        <mxCell id="BTqa3jgfDJMF8cVpdAcL-105" value="&amp;lt;&amp;lt;extend&amp;gt;&amp;gt;" style="text;html=1;align=center;verticalAlign=middle;whiteSpace=wrap;rounded=0;" parent="1" vertex="1">
          <mxGeometry x="-925" y="780" width="60" height="30" as="geometry" />
        </mxCell>
        <mxCell id="BTqa3jgfDJMF8cVpdAcL-106" value="&amp;lt;&amp;lt;extend&amp;gt;&amp;gt;" style="text;html=1;align=center;verticalAlign=middle;whiteSpace=wrap;rounded=0;" parent="1" vertex="1">
          <mxGeometry x="-980" y="811" width="60" height="30" as="geometry" />
        </mxCell>
        <mxCell id="BTqa3jgfDJMF8cVpdAcL-107" value="&amp;lt;&amp;lt;include&amp;gt;&amp;gt;" style="text;html=1;align=center;verticalAlign=middle;whiteSpace=wrap;rounded=0;" parent="1" vertex="1">
          <mxGeometry x="-787" y="885" width="60" height="30" as="geometry" />
        </mxCell>
        <mxCell id="BTqa3jgfDJMF8cVpdAcL-108" value="&amp;lt;&amp;lt;include&amp;gt;&amp;gt;" style="text;html=1;align=center;verticalAlign=middle;whiteSpace=wrap;rounded=0;" parent="1" vertex="1">
          <mxGeometry x="-750" y="1020" width="60" height="30" as="geometry" />
        </mxCell>
        <mxCell id="BTqa3jgfDJMF8cVpdAcL-109" value="&amp;lt;&amp;lt;extend&amp;gt;&amp;gt;" style="text;html=1;align=center;verticalAlign=middle;whiteSpace=wrap;rounded=0;" parent="1" vertex="1">
          <mxGeometry x="60" y="560" width="60" height="30" as="geometry" />
        </mxCell>
        <mxCell id="BTqa3jgfDJMF8cVpdAcL-111" value="&amp;lt;&amp;lt;extend&amp;gt;&amp;gt;" style="text;html=1;align=center;verticalAlign=middle;whiteSpace=wrap;rounded=0;" parent="1" vertex="1">
          <mxGeometry x="-840" y="1102" width="60" height="30" as="geometry" />
        </mxCell>
        <mxCell id="BTqa3jgfDJMF8cVpdAcL-112" value="&amp;lt;&amp;lt;extend&amp;gt;&amp;gt;" style="text;html=1;align=center;verticalAlign=middle;whiteSpace=wrap;rounded=0;" parent="1" vertex="1">
          <mxGeometry x="-750" y="1139" width="60" height="30" as="geometry" />
        </mxCell>
        <mxCell id="BTqa3jgfDJMF8cVpdAcL-113" value="&amp;lt;&amp;lt;extend&amp;gt;&amp;gt;" style="text;html=1;align=center;verticalAlign=middle;whiteSpace=wrap;rounded=0;" parent="1" vertex="1">
          <mxGeometry x="-652" y="1102" width="60" height="30" as="geometry" />
        </mxCell>
        <mxCell id="BTqa3jgfDJMF8cVpdAcL-114" value="&amp;lt;&amp;lt;include&amp;gt;&amp;gt;" style="text;html=1;align=center;verticalAlign=middle;whiteSpace=wrap;rounded=0;horizontal=0;" parent="1" vertex="1">
          <mxGeometry x="-640" y="960.5" width="60" height="30" as="geometry" />
        </mxCell>
        <mxCell id="BTqa3jgfDJMF8cVpdAcL-115" value="&amp;lt;&amp;lt;include&amp;gt;&amp;gt;" style="text;html=1;align=center;verticalAlign=middle;whiteSpace=wrap;rounded=0;horizontal=0;" parent="1" vertex="1">
          <mxGeometry x="-445" y="960.5" width="80" height="30" as="geometry" />
        </mxCell>
        <mxCell id="BTqa3jgfDJMF8cVpdAcL-116" value="&amp;lt;&amp;lt;include&amp;gt;&amp;gt;" style="text;html=1;align=center;verticalAlign=middle;whiteSpace=wrap;rounded=0;" parent="1" vertex="1">
          <mxGeometry x="-335" y="1020" width="60" height="30" as="geometry" />
        </mxCell>
        <mxCell id="BTqa3jgfDJMF8cVpdAcL-117" value="&amp;lt;&amp;lt;extend&amp;gt;&amp;gt;" style="text;html=1;align=center;verticalAlign=middle;whiteSpace=wrap;rounded=0;" parent="1" vertex="1">
          <mxGeometry x="-627" y="768" width="60" height="30" as="geometry" />
        </mxCell>
        <mxCell id="BTqa3jgfDJMF8cVpdAcL-120" value="&amp;lt;&amp;lt;use&amp;gt;&amp;gt;" style="text;html=1;align=center;verticalAlign=middle;whiteSpace=wrap;rounded=0;" parent="1" vertex="1">
          <mxGeometry x="-210" y="885" width="60" height="30" as="geometry" />
        </mxCell>
        <mxCell id="BTqa3jgfDJMF8cVpdAcL-121" value="&amp;lt;&amp;lt;use&amp;gt;&amp;gt;" style="text;html=1;align=center;verticalAlign=middle;whiteSpace=wrap;rounded=0;" parent="1" vertex="1">
          <mxGeometry x="-150" y="820" width="60" height="30" as="geometry" />
        </mxCell>
        <mxCell id="BTqa3jgfDJMF8cVpdAcL-122" value="&amp;lt;&amp;lt;use&amp;gt;&amp;gt;" style="text;html=1;align=center;verticalAlign=middle;whiteSpace=wrap;rounded=0;" parent="1" vertex="1">
          <mxGeometry x="103.5" y="940" width="60" height="30" as="geometry" />
        </mxCell>
        <mxCell id="BTqa3jgfDJMF8cVpdAcL-123" value="&amp;lt;&amp;lt;extend&amp;gt;&amp;gt;" style="text;html=1;align=center;verticalAlign=middle;whiteSpace=wrap;rounded=0;horizontal=0;" parent="1" vertex="1">
          <mxGeometry x="103.5" y="630.5" width="60" height="30" as="geometry" />
        </mxCell>
        <mxCell id="BTqa3jgfDJMF8cVpdAcL-124" value="&amp;lt;&amp;lt;extend&amp;gt;&amp;gt;" style="text;html=1;align=center;verticalAlign=middle;whiteSpace=wrap;rounded=0;horizontal=1;" parent="1" vertex="1">
          <mxGeometry x="60" y="701.5" width="60" height="30" as="geometry" />
        </mxCell>
        <mxCell id="BTqa3jgfDJMF8cVpdAcL-125" value="&lt;font color=&quot;#d6b656&quot;&gt;Sección de casos de uso para usuarios registrados&lt;/font&gt;" style="text;html=1;align=center;verticalAlign=middle;whiteSpace=wrap;rounded=0;fontFamily=Courier New;fontColor=#994C00;" parent="1" vertex="1">
          <mxGeometry x="-1050" y="560" width="190" height="30" as="geometry" />
        </mxCell>
        <mxCell id="BTqa3jgfDJMF8cVpdAcL-126" value="&lt;font color=&quot;#d6b656&quot;&gt;Sección de casos de uso para usuarios tipo admin&lt;/font&gt;" style="text;html=1;align=center;verticalAlign=middle;whiteSpace=wrap;rounded=0;fontFamily=Courier New;fontColor=#994C00;" parent="1" vertex="1">
          <mxGeometry x="-190" y="500" width="190" height="30" as="geometry" />
        </mxCell>
        <mxCell id="BTqa3jgfDJMF8cVpdAcL-127" value="&lt;font color=&quot;#d6b656&quot;&gt;sección de la pasarela de pago&lt;/font&gt;" style="text;html=1;align=center;verticalAlign=middle;whiteSpace=wrap;rounded=0;fontFamily=Courier New;fontColor=#994C00;" parent="1" vertex="1">
          <mxGeometry x="-445" y="1210" width="190" height="30" as="geometry" />
        </mxCell>
        <mxCell id="BTqa3jgfDJMF8cVpdAcL-128" value="&lt;h1 style=&quot;text-align: center; margin-top: 0px;&quot;&gt;Diagrama de casos de uso de la página web;&amp;nbsp;&lt;font color=&quot;#d6b656&quot;&gt;ELEGANZA&lt;/font&gt;&lt;/h1&gt;&lt;p&gt;Según lo descrito en los requerimientos funcionales y no funcionales del sistema se presenta los casos de uso correspondientes&lt;/p&gt;&lt;p&gt;&lt;i&gt;Autor: Jairo Andrés Arcia Osorio&lt;/i&gt;&lt;/p&gt;" style="text;html=1;whiteSpace=wrap;overflow=hidden;rounded=0;" parent="1" vertex="1">
          <mxGeometry x="-215" y="170" width="390" height="160" as="geometry" />
        </mxCell>
      </root>
    </mxGraphModel>
  </diagram>
</mxfile>
